<svg xmlns="http://www.w3.org/2000/svg" version="1.1" x="0" y="0" viewBox="0 0 792 612" enable-background="new 0 0 792 612" xml:space="preserve">

	<defs>
		<style>
			.fami-logo{
				fill:white;
			}
		</style>
	</defs>

	<g class='fami-logo'>

		<path d="M10 178.7h71.9v29.6H43.6v22.4h36.8v29.5H43.6v50.2H10V178.7zM90.6 310.4H57.7l76.5-131.7h37.4l-0.1 131.7H141v-19h-37.1L90.6 310.4zM141 218.8l-23.8 45.9H141V218.8zM178 310.4V178.7h45l24.7 84.9 24-84.9H317v131.7h-31l1.1-98.6 -28.5 98.6h-22.3l-28.5-98.6 1.1 98.6H178zM323.1 178.7h33.6v131.7h-33.6V178.7zM497 261.1c-7.7 31.2-34.7 51.8-66.6 51.8 -41.3 0-69.4-32.9-69.4-68.5 0-33.6 26-68.2 69.1-68.2 41.3 0 63.4 31.9 66.9 52.5h-35.2c-3.7-9.8-13.7-23-31.9-23 -22.6 0-35.2 19.8-35.2 38.5 0 19.9 13.5 39.2 35.4 39.2 21 0 29.5-17.6 31.7-22.3H497zM498 246c0-43.1 33.1-69.8 69.4-69.8 40.6 0 69.6 31.7 69.6 68.4 0 36.7-28.8 68.4-69.8 68.4 -41.5 0-69.2-32.9-69.2-66.8V246zM531.7 244.4c0 20.1 13.7 39 36.3 39 23.9 0 35.4-21.7 35.4-38.6 0-17.1-11.6-39-35.8-39 -23.3 0-36 19.9-36 38.5V244.4zM641 310.4V178.7h45l24.7 84.9 24-84.9H780v131.7h-31l1.1-98.6 -28.5 98.6h-22.3l-28.5-98.6 1.1 98.6H641z"/>

		<path d="M120.5 317.5c24.4 0 33.5 3.7 40.6 9.6 10.3 8.5 15.5 21.5 15.5 34.9 0 13.3-5.5 27.4-13.9 34.5 -9.1 7.7-18 11.4-38.5 11.4h-13.2v41.3H77.5V317.5H120.5zM111.1 378.4h12.3c3.2 0 8.5 0 13-2 4.4-2 8-6 8-13.9 0-7.8-3.7-11.6-8.4-13.5 -4.6-2-10.1-2-13.9-2h-11V378.4zM180 317.5h74.6v29.6h-40.9v20.5h39.7v29.6h-39.7v22.6h40.9v29.5H180V317.5zM339.3 397.8l-0.7-80.3h32.2v131.7h-29.2l-50.4-79.4 0.7 79.4h-32.2V317.5h29L339.3 397.8zM377 317.5h43.6c14.8 0 41.1 0 58.2 24.6 9.1 12.5 12.1 26.5 12.1 40.9 0 36-17.8 66.2-67.8 66.2H377V317.5zM410.7 419.7h14.4c25.1 0 32.2-17.4 32.2-36.1 0-7.5-1.6-16.9-6.4-24.4 -3.9-5.9-10.7-12.1-25.6-12.1h-14.6V419.7zM494.8 317.5h33.6v131.7h-33.6V317.5zM567.8 317.5v79.6c0 4.4 0.2 10.7 2.3 15.8 2.3 5.2 6.6 9.3 14.8 9.3 8.4 0 12.6-3.7 14.6-8.5 2.1-5 2.1-11.4 2.1-16.6v-79.6h33.6v79.6c0 22.1-4.8 31.9-13.2 40.4 -8.5 8.7-20.5 14.2-36.8 14.2 -9.6 0-27.1-2.3-37.9-14.1 -10.9-11.9-13.2-21.2-13.2-40.6v-79.6H567.8zM641 449.3V317.5h45l24.7 84.9 24-84.9H780v131.7h-31l1.1-98.6 -28.5 98.6h-22.3l-28.5-98.6 1.1 98.6H641z"/>

		<path d="M60 368.3v29H10v-29H60z"/>

	</g>

</svg>